<svg width="80" height="80" viewBox="0 0 80 80" fill="none" xmlns="http://www.w3.org/2000/svg">
<circle cx="40" cy="40" r="40" fill="#AF3939"/>
<path d="M56.3337 45.7917C56.3337 45.3607 56.1625 44.9474 55.8577 44.6426C55.553 44.3379 55.1396 44.1667 54.7087 44.1667H48.2087C47.7777 44.1667 47.3644 44.3379 47.0596 44.6426C46.7549 44.9474 46.5837 45.3607 46.5837 45.7917V60.4167H43.3337V25.2083C43.3337 23.631 43.3293 22.6083 43.2297 21.8587C43.1343 21.1545 42.9805 20.9335 42.857 20.81C42.7335 20.6865 42.5125 20.5327 41.8083 20.4373C41.0565 20.3377 40.036 20.3333 38.4587 20.3333C36.8813 20.3333 35.8587 20.3377 35.109 20.4373C34.4048 20.5327 34.1838 20.6865 34.0603 20.81C33.9368 20.9335 33.783 21.1545 33.6877 21.8587C33.588 22.6105 33.5837 23.631 33.5837 25.2083V60.4167H30.3337V34.9583C30.3337 34.5274 30.1625 34.114 29.8577 33.8093C29.553 33.5045 29.1396 33.3333 28.7087 33.3333H22.2087C21.7777 33.3333 21.3644 33.5045 21.0596 33.8093C20.7549 34.114 20.5837 34.5274 20.5837 34.9583V60.4167H16.792C16.361 60.4167 15.9477 60.5879 15.6429 60.8926C15.3382 61.1974 15.167 61.6107 15.167 62.0417C15.167 62.4726 15.3382 62.886 15.6429 63.1907C15.9477 63.4955 16.361 63.6667 16.792 63.6667H60.1253C60.5563 63.6667 60.9696 63.4955 61.2744 63.1907C61.5791 62.886 61.7503 62.4726 61.7503 62.0417C61.7503 61.6107 61.5791 61.1974 61.2744 60.8926C60.9696 60.5879 60.5563 60.4167 60.1253 60.4167H56.3337V45.7917Z" fill="#FFFDFB"/>
</svg>
