<svg width="94" height="94" viewBox="0 0 94 94" fill="none" xmlns="http://www.w3.org/2000/svg">
<circle cx="47" cy="47" r="43.5" fill="#FFFDFB" stroke="#AF3939" stroke-width="7"/>
<path d="M63.3337 52.7917C63.3337 52.3607 63.1625 51.9474 62.8577 51.6426C62.553 51.3379 62.1396 51.1667 61.7087 51.1667H55.2087C54.7777 51.1667 54.3644 51.3379 54.0596 51.6426C53.7549 51.9474 53.5837 52.3607 53.5837 52.7917V67.4167H50.3337V32.2083C50.3337 30.631 50.3293 29.6083 50.2297 28.8587C50.1343 28.1545 49.9805 27.9335 49.857 27.81C49.7335 27.6865 49.5125 27.5327 48.8083 27.4373C48.0565 27.3377 47.036 27.3333 45.4587 27.3333C43.8813 27.3333 42.8587 27.3377 42.109 27.4373C41.4048 27.5327 41.1838 27.6865 41.0603 27.81C40.9368 27.9335 40.783 28.1545 40.6877 28.8587C40.588 29.6105 40.5837 30.631 40.5837 32.2083V67.4167H37.3337V41.9583C37.3337 41.5274 37.1625 41.114 36.8577 40.8093C36.553 40.5045 36.1396 40.3333 35.7087 40.3333H29.2087C28.7777 40.3333 28.3644 40.5045 28.0596 40.8093C27.7549 41.114 27.5837 41.5274 27.5837 41.9583V67.4167H23.792C23.361 67.4167 22.9477 67.5879 22.6429 67.8926C22.3382 68.1974 22.167 68.6107 22.167 69.0417C22.167 69.4726 22.3382 69.886 22.6429 70.1907C22.9477 70.4955 23.361 70.6667 23.792 70.6667H67.1253C67.5563 70.6667 67.9696 70.4955 68.2744 70.1907C68.5791 69.886 68.7503 69.4726 68.7503 69.0417C68.7503 68.6107 68.5791 68.1974 68.2744 67.8926C67.9696 67.5879 67.5563 67.4167 67.1253 67.4167H63.3337V52.7917Z" fill="#AF3939"/>
</svg>
