<svg width="155" height="99" viewBox="0 0 155 99" fill="none" xmlns="http://www.w3.org/2000/svg">
<path d="M132.411 94.3171C149.707 89.7778 157.067 76.844 146.017 53.995C153.358 21.6989 144.503 13.1279 120.981 13.1279C89.9598 -14.1168 71.9996 25.1156 71.9996 25.1156C53.7913 21.0226 42.0663 25.1156 42.0663 46.9113C27.8546 52.7306 13.3717 50.3359 6.0791 48.4228C4.32323 47.9622 2.81517 49.7635 3.8277 51.2701C8.99692 58.962 22.2619 74.2023 46.5399 74.8811C49.6913 85.5655 54.5107 91.4004 75.2651 81.7845C87.9573 92.2925 94.9748 93.102 107.375 88.8682C107.375 88.8682 115.114 98.8564 132.411 94.3171Z" fill="#FFFDFB"/>
<path d="M134.163 61.8037C134.896 71.0479 125.187 74.8811 120.981 65.9826C115.659 54.72 128.613 40.2087 146.017 53.995M146.017 53.995C157.067 76.844 149.707 89.7778 132.411 94.3171C115.114 98.8564 107.375 88.8682 107.375 88.8682M146.017 53.995C153.358 21.6989 144.503 13.1279 120.981 13.1279C89.9598 -14.1168 71.9996 25.1156 71.9996 25.1156M107.375 88.8682C120.981 59.4439 80.1634 65.9826 94.3136 79.0601M107.375 88.8682C94.9748 93.102 87.9573 92.2925 75.2651 81.7845C54.5107 91.4004 49.6913 85.5655 46.5399 74.8811C22.2619 74.2023 8.99693 58.962 3.82771 51.2701C2.81517 49.7635 4.32323 47.9622 6.0791 48.4228C13.3717 50.3359 27.8546 52.7306 42.0663 46.9113M42.0663 46.9113C42.0663 25.1156 53.7913 21.0226 71.9996 25.1156M42.0663 46.9113C59.7664 77.6056 74.2963 37.2834 55.2478 43.2773M71.9996 25.1156C92.2563 86.8688 133.598 14.3184 88.9909 28.5651" stroke="#57321F" stroke-width="7" stroke-linecap="round"/>
</svg>
