<svg width="225" height="127" viewBox="0 0 225 127" fill="none" xmlns="http://www.w3.org/2000/svg">
<path d="M99.2352 36.7467C79.3432 29.8669 68.5285 30.9757 51.3338 64.0297C37.4851 69.508 28.6317 72.0196 6.98089 67.638C5.17197 67.272 3.83407 69.3255 4.95551 70.7913C26.5095 98.9636 43.569 102.674 80.2398 98.7535C107.179 129.358 123.522 127.811 153.744 108.675M99.2352 36.7467C110.798 -7.07159 162.003 -5.41821 180.998 36.7467C256.153 50.8012 208.251 152.492 153.744 108.675M99.2352 36.7467C119.055 116.115 181.717 19.224 119.055 36.7467M153.744 108.675C129.792 52.4547 212.988 77.8395 173.564 98.7535" stroke="#57321F" stroke-width="9" stroke-linecap="round"/>
</svg>
