<svg width="323" height="203" viewBox="0 0 323 203" fill="none" xmlns="http://www.w3.org/2000/svg">
<path d="M277.921 195.031C314.129 185.558 329.536 158.566 306.403 110.881C321.772 43.4802 303.235 25.5931 253.996 25.5931C189.058 -31.2656 151.461 50.6108 151.461 50.6108C113.345 42.0688 88.8005 50.6108 88.8005 96.0976C55.0235 109.886 20.5147 101.577 8.134 97.7309C6.40033 97.1923 4.85233 98.9546 5.78119 100.514C13.7232 113.851 41.7307 152.896 98.1654 154.469C104.762 176.767 114.851 188.944 158.297 168.876C184.866 190.806 199.556 192.496 225.514 183.66C225.514 183.66 241.714 204.505 277.921 195.031Z" fill="#FFFDFB"/>
<path d="M281.59 127.177C283.125 146.469 262.8 154.469 253.996 135.899C242.854 112.394 269.973 82.1094 306.403 110.881M306.403 110.881C329.536 158.566 314.129 185.558 277.921 195.031C241.714 204.505 225.514 183.66 225.514 183.66M306.403 110.881C321.772 43.4802 303.235 25.5931 253.996 25.5931C189.058 -31.2656 151.461 50.6108 151.461 50.6108M225.514 183.66C253.996 122.253 168.55 135.899 198.172 163.191M225.514 183.66C199.556 192.496 184.866 190.806 158.297 168.876C114.851 188.944 104.762 176.767 98.1654 154.469C41.7307 152.896 13.7232 113.851 5.78119 100.514C4.85232 98.9546 6.40033 97.1923 8.134 97.7309C20.5147 101.577 55.0235 109.886 88.8005 96.0976M88.8005 96.0976C88.8005 50.6108 113.345 42.0688 151.461 50.6108M88.8005 96.0976C125.853 160.155 156.269 76.0046 116.394 88.5134M151.461 50.6108C193.865 179.487 280.408 28.0774 187.029 57.8099" stroke="#57321F" stroke-width="11" stroke-linecap="round"/>
</svg>
