<svg width="278" height="156" viewBox="0 0 278 156" fill="none" xmlns="http://www.w3.org/2000/svg">
<path d="M63.6592 78.6554C46.2449 85.5373 35.2079 88.6354 7.48492 82.8651C5.67779 82.489 4.33593 84.539 5.44942 86.0112C32.5109 121.79 53.6071 126.516 99.4603 121.619C132.825 159.485 153.066 157.571 190.497 133.894C258.006 188.109 317.334 62.2879 224.253 44.8985C200.726 -7.27172 137.307 -9.31743 122.987 44.8985C98.3498 36.3862 84.9554 37.758 63.6592 78.6554Z" fill="#FFFDFB"/>
<path d="M122.987 44.8985C98.3498 36.3862 84.9554 37.758 63.6592 78.6554C46.2449 85.5373 35.2079 88.6354 7.4849 82.8651C5.67779 82.489 4.33593 84.539 5.44942 86.0112C32.5109 121.79 53.6071 126.516 99.4603 121.619C132.825 159.485 153.066 157.571 190.497 133.894M122.987 44.8985C137.307 -9.31743 200.726 -7.27172 224.253 44.8985C317.334 62.2879 258.006 188.109 190.497 133.894M122.987 44.8985C147.534 143.1 225.143 23.2178 147.534 44.8985M190.497 133.894C160.832 64.3338 263.874 95.742 215.045 121.619" stroke="#57321F" stroke-width="10" stroke-linecap="round"/>
</svg>
