<svg width="323" height="203" viewBox="0 0 323 203" fill="none" xmlns="http://www.w3.org/2000/svg">
<path d="M44.9355 195.031C8.72808 185.558 -6.6792 158.566 16.4535 110.881C1.08504 43.4802 19.6217 25.5931 68.8604 25.5931C133.799 -31.2656 171.396 50.6108 171.396 50.6108C209.512 42.0688 234.056 50.6108 234.056 96.0976C267.833 109.886 302.342 101.577 314.723 97.7309C316.456 97.1923 318.004 98.9546 317.076 100.514C309.134 113.851 281.126 152.896 224.691 154.469C218.095 176.767 208.006 188.944 164.56 168.876C137.991 190.806 123.301 192.496 97.3425 183.66C97.3425 183.66 81.1429 204.505 44.9355 195.031Z" fill="white"/>
<path d="M41.2671 127.177C39.7323 146.469 60.0571 154.469 68.8604 135.899C80.0026 112.394 52.8842 82.1094 16.4535 110.881M16.4535 110.881C-6.6792 158.566 8.72808 185.558 44.9355 195.031C81.1429 204.505 97.3425 183.66 97.3425 183.66M16.4535 110.881C1.08504 43.4802 19.6217 25.5931 68.8604 25.5931C133.799 -31.2656 171.396 50.6108 171.396 50.6108M97.3425 183.66C68.8604 122.252 154.306 135.899 124.685 163.191M97.3425 183.66C123.301 192.496 137.991 190.806 164.56 168.876C208.006 188.944 218.095 176.767 224.691 154.469C281.126 152.896 309.134 113.851 317.076 100.514C318.004 98.9546 316.456 97.1923 314.723 97.7309C302.342 101.577 267.833 109.886 234.056 96.0976M234.056 96.0976C234.056 50.6108 209.512 42.0688 171.396 50.6108M234.056 96.0976C197.004 160.155 166.588 76.0046 206.463 88.5134M171.396 50.6108C128.992 179.487 42.449 28.0774 135.827 57.8098" stroke="#57321F" stroke-width="11" stroke-linecap="round"/>
</svg>
