<svg width="226" height="128" viewBox="0 0 226 128" fill="none" xmlns="http://www.w3.org/2000/svg">
<path d="M125.544 37.2467C145.436 30.3669 156.251 31.4756 173.446 64.5297C187.294 70.008 196.148 72.5196 217.798 68.138C219.607 67.7719 220.945 69.8255 219.824 71.2913C198.27 99.4635 181.21 103.174 144.539 99.2534C117.601 129.858 101.258 128.311 71.0355 109.175M125.544 37.2467C113.982 -6.57162 62.7766 -4.91824 43.7812 37.2467C-31.3735 51.3012 16.5283 152.992 71.0355 109.175M125.544 37.2467C105.724 116.615 43.0623 19.7239 105.724 37.2467M71.0355 109.175C94.9876 52.9547 11.7909 78.3394 51.2156 99.2534" stroke="#57321F" stroke-width="10" stroke-linecap="round"/>
</svg>
