<svg width="35" height="35" viewBox="0 0 35 35" fill="none" xmlns="http://www.w3.org/2000/svg">
<circle cx="17.5" cy="17.5" r="17.5" fill="#AF3939"/>
<path d="M15.0001 22.17L11.5301 18.7C11.3432 18.513 11.0896 18.408 10.8251 18.408C10.5607 18.408 10.3071 18.513 10.1201 18.7C9.93317 18.887 9.82812 19.1406 9.82812 19.405C9.82812 19.5359 9.85391 19.6656 9.90402 19.7865C9.95412 19.9075 10.0276 20.0174 10.1201 20.11L14.3001 24.29C14.6901 24.68 15.3201 24.68 15.7101 24.29L26.2901 13.71C26.4771 13.523 26.5822 13.2694 26.5822 13.005C26.5822 12.7406 26.4771 12.487 26.2901 12.3C26.1032 12.113 25.8496 12.008 25.5851 12.008C25.3207 12.008 25.0671 12.113 24.8801 12.3L15.0001 22.17Z" fill="#FFFDFB"/>
</svg>
