<svg width="35" height="35" viewBox="0 0 35 35" fill="none" xmlns="http://www.w3.org/2000/svg">
<circle cx="17.5" cy="17.5" r="17.5" transform="rotate(-90 17.5 17.5)" fill="#AF3939"/>
<path d="M13 14.667C13 13.9597 13.281 13.2813 13.7811 12.7811C14.2813 12.281 14.9597 12 15.667 12H24.333C24.6832 12 25.03 12.069 25.3536 12.203C25.6772 12.337 25.9712 12.5335 26.2189 12.7811C26.4665 13.0288 26.663 13.3228 26.797 13.6464C26.931 13.97 27 14.3168 27 14.667V23.333C27 23.6832 26.931 24.03 26.797 24.3536C26.663 24.6772 26.4665 24.9712 26.2189 25.2189C25.9712 25.4665 25.6772 25.663 25.3536 25.797C25.03 25.931 24.6832 26 24.333 26H15.667C15.3168 26 14.97 25.931 14.6464 25.797C14.3228 25.663 14.0288 25.4665 13.7811 25.2189C13.5335 24.9712 13.337 24.6772 13.203 24.3536C13.069 24.03 13 23.6832 13 23.333V14.667Z" stroke="#FFFDFB" stroke-width="2" stroke-linecap="round" stroke-linejoin="round"/>
<path d="M10.012 21.737C9.705 21.5626 9.44965 21.31 9.2719 21.0049C9.09415 20.6998 9.00034 20.3531 9 20V10C9 8.9 9.9 8 11 8H21C21.75 8 22.158 8.385 22.5 9" stroke="#FFFDFB" stroke-width="2" stroke-linecap="round" stroke-linejoin="round"/>
</svg>
