<svg width="28" height="28" viewBox="0 0 28 28" fill="none" xmlns="http://www.w3.org/2000/svg">
<path d="M23.074 14C23.074 11.5933 22.118 9.28525 20.4162 7.58349C18.7144 5.88172 16.4063 4.92568 13.9997 4.92568C11.593 4.92568 9.28492 5.88172 7.58315 7.58349C5.88138 9.28525 4.92534 11.5933 4.92534 14C4.92534 16.4067 5.88138 18.7148 7.58315 20.4165C9.28492 22.1183 11.593 23.0743 13.9997 23.0743C16.4063 23.0743 18.7144 22.1183 20.4162 20.4165C22.118 18.7148 23.074 16.4067 23.074 14ZM16.9723 11.1393C17.0926 11.0191 17.2354 10.9237 17.3925 10.8586C17.5497 10.7935 17.7181 10.76 17.8882 10.76C18.0583 10.76 18.2267 10.7935 18.3838 10.8586C18.541 10.9237 18.6837 11.0191 18.804 11.1393C18.9243 11.2596 19.0197 11.4024 19.0848 11.5595C19.1499 11.7167 19.1834 11.8851 19.1834 12.0552C19.1834 12.2253 19.1499 12.3937 19.0848 12.5508C19.0197 12.708 18.9243 12.8507 18.804 12.971L14.9167 16.8607C14.7964 16.9813 14.6535 17.077 14.4961 17.1423C14.3387 17.2077 14.17 17.2413 13.9997 17.2413C13.8293 17.2413 13.6606 17.2077 13.5033 17.1423C13.3459 17.077 13.203 16.9813 13.0827 16.8607L9.19417 12.9733L9.10551 12.8742C8.90092 12.6257 8.79622 12.3099 8.81182 11.9883C8.82742 11.6668 8.9622 11.3627 9.18989 11.1351C9.41757 10.9076 9.72184 10.773 10.0434 10.7576C10.3649 10.7422 10.6806 10.8471 10.929 11.0518L11.027 11.1405L13.9997 14.1108L16.9723 11.1393ZM25.6663 14C25.6663 20.4435 20.4432 25.6667 13.9997 25.6667C7.55617 25.6667 2.33301 20.4435 2.33301 14C2.33301 7.55651 7.55617 2.33334 13.9997 2.33334C20.4432 2.33334 25.6663 7.55651 25.6663 14Z" fill="#696159"/>
</svg>
