<svg width="35" height="35" viewBox="0 0 35 35" fill="none" xmlns="http://www.w3.org/2000/svg">
<circle cx="17.5" cy="17.5" r="17.5" fill="#AF3939"/>
<path d="M19.5 12.5L23.5 16.5M10 26H14L24.5 15.5C24.7626 15.2374 24.971 14.9255 25.1131 14.5824C25.2553 14.2392 25.3284 13.8714 25.3284 13.5C25.3284 13.1286 25.2553 12.7608 25.1131 12.4176C24.971 12.0744 24.7626 11.7626 24.5 11.5C24.2374 11.2374 23.9256 11.029 23.5824 10.8869C23.2392 10.7447 22.8714 10.6716 22.5 10.6716C22.1286 10.6716 21.7608 10.7447 21.4176 10.8869C21.0744 11.029 20.7626 11.2374 20.5 11.5L10 22V26Z" stroke="#FFFDFB" stroke-width="2" stroke-linecap="round" stroke-linejoin="round"/>
</svg>
