<svg width="94" height="94" viewBox="0 0 94 94" fill="none" xmlns="http://www.w3.org/2000/svg">
<circle cx="47" cy="47" r="43.5" fill="#FFFDFB" stroke="#AF3939" stroke-width="7"/>
<path d="M27.0251 51.125C27.3918 50.6667 27.6668 50.1057 27.8501 49.442C28.0334 48.7783 28.1251 47.9643 28.1251 47C28.1251 45.625 27.6668 43.8833 26.7501 41.775C25.8334 39.6667 25.3751 38.0854 25.3751 37.0313C25.3751 36.4813 25.4329 35.9083 25.5484 35.3125C25.6639 34.7167 25.9728 34.0292 26.4751 33.25H30.6001C30.0959 34.0292 29.787 34.7167 29.6734 35.3125C29.5597 35.9083 29.5019 36.4813 29.5001 37.0313C29.5001 38.0854 29.9584 39.6667 30.8751 41.775C31.7918 43.8833 32.2501 45.625 32.2501 47C32.2501 47.9625 32.1584 48.7536 31.9751 49.3733C31.7918 49.9929 31.5168 50.5768 31.1501 51.125H27.0251ZM44.9001 51.125C45.2668 50.6667 45.5418 50.1057 45.7251 49.442C45.9084 48.7783 46.0001 47.9643 46.0001 47C46.0001 45.625 45.5418 43.8833 44.6251 41.775C43.7084 39.6667 43.2501 38.0854 43.2501 37.0313C43.2501 36.4813 43.3079 35.9083 43.4234 35.3125C43.5389 34.7167 43.8478 34.0292 44.3501 33.25H48.4751C47.9709 34.0292 47.662 34.7167 47.5484 35.3125C47.4347 35.9083 47.3769 36.4813 47.3751 37.0313C47.3751 38.0854 47.8334 39.6667 48.7501 41.775C49.6668 43.8833 50.1251 45.625 50.1251 47C50.1251 47.9625 50.0334 48.7536 49.8501 49.3733C49.6668 49.9929 49.3918 50.5768 49.0251 51.125H44.9001ZM35.9626 51.125C36.3293 50.6667 36.6043 50.1057 36.7876 49.442C36.9709 48.7783 37.0626 47.9643 37.0626 47C37.0626 45.625 36.6043 43.8833 35.6876 41.775C34.7709 39.6667 34.3126 38.0854 34.3126 37.0313C34.3126 36.4813 34.3704 35.9083 34.4859 35.3125C34.6014 34.7167 34.9103 34.0292 35.4126 33.25H39.5376C39.0334 34.0292 38.7245 34.7167 38.6109 35.3125C38.4972 35.9083 38.4394 36.4813 38.4376 37.0313C38.4376 38.0854 38.8959 39.6667 39.8126 41.775C40.7293 43.8833 41.1876 45.625 41.1876 47C41.1876 47.9625 41.0959 48.7536 40.9126 49.3733C40.7293 49.9929 40.4543 50.5768 40.0876 51.125H35.9626ZM39.8126 74.5C35.1834 74.5 31.1162 72.9536 27.6109 69.8608C24.1055 66.7679 21.9853 62.9289 21.2501 58.3438C21.1584 57.5188 21.3876 56.7964 21.9376 56.1768C22.4876 55.5571 23.1751 55.2482 24.0001 55.25H52.9439L55.9689 26.7875C56.198 24.725 57.0808 22.9943 58.6171 21.5955C60.1534 20.1967 61.9978 19.4982 64.1501 19.5C66.4418 19.5 68.3897 20.3021 69.9939 21.9063C71.598 23.5104 72.4001 25.4583 72.4001 27.75C72.4001 28.3917 72.3433 29.2396 72.2296 30.2938L72.0564 31.875L66.6251 31.1875L66.7626 29.7768C66.8543 28.8381 66.9001 28.1625 66.9001 27.75C66.9001 26.9708 66.6361 26.3182 66.1081 25.792C65.5801 25.2658 64.9275 25.0018 64.1501 25C63.4168 25 62.798 25.2411 62.2939 25.7233C61.7897 26.2054 61.4918 26.7893 61.4001 27.475L58.2376 57.3813C57.7335 62.2396 55.7397 66.3078 52.2564 69.5858C48.773 72.8638 44.6251 74.5018 39.8126 74.5Z" fill="#AF3939"/>
</svg>
