<svg width="80" height="80" viewBox="0 0 80 80" fill="none" xmlns="http://www.w3.org/2000/svg">
<circle cx="40" cy="40" r="40" fill="#AF3939"/>
<path d="M20.0251 44.125C20.3918 43.6667 20.6668 43.1057 20.8501 42.442C21.0334 41.7783 21.1251 40.9643 21.1251 40C21.1251 38.625 20.6668 36.8833 19.7501 34.775C18.8334 32.6667 18.3751 31.0854 18.3751 30.0313C18.3751 29.4813 18.4329 28.9083 18.5484 28.3125C18.6639 27.7167 18.9728 27.0292 19.4751 26.25H23.6001C23.0959 27.0292 22.787 27.7167 22.6734 28.3125C22.5597 28.9083 22.5019 29.4813 22.5001 30.0313C22.5001 31.0854 22.9584 32.6667 23.8751 34.775C24.7918 36.8833 25.2501 38.625 25.2501 40C25.2501 40.9625 25.1584 41.7536 24.9751 42.3733C24.7918 42.9929 24.5168 43.5768 24.1501 44.125H20.0251ZM37.9001 44.125C38.2668 43.6667 38.5418 43.1057 38.7251 42.442C38.9084 41.7783 39.0001 40.9643 39.0001 40C39.0001 38.625 38.5418 36.8833 37.6251 34.775C36.7084 32.6667 36.2501 31.0854 36.2501 30.0313C36.2501 29.4813 36.3079 28.9083 36.4234 28.3125C36.5389 27.7167 36.8478 27.0292 37.3501 26.25H41.4751C40.9709 27.0292 40.662 27.7167 40.5484 28.3125C40.4347 28.9083 40.3769 29.4813 40.3751 30.0313C40.3751 31.0854 40.8334 32.6667 41.7501 34.775C42.6668 36.8833 43.1251 38.625 43.1251 40C43.1251 40.9625 43.0334 41.7536 42.8501 42.3733C42.6668 42.9929 42.3918 43.5768 42.0251 44.125H37.9001ZM28.9626 44.125C29.3293 43.6667 29.6043 43.1057 29.7876 42.442C29.9709 41.7783 30.0626 40.9643 30.0626 40C30.0626 38.625 29.6043 36.8833 28.6876 34.775C27.7709 32.6667 27.3126 31.0854 27.3126 30.0313C27.3126 29.4813 27.3704 28.9083 27.4859 28.3125C27.6014 27.7167 27.9103 27.0292 28.4126 26.25H32.5376C32.0334 27.0292 31.7245 27.7167 31.6109 28.3125C31.4972 28.9083 31.4394 29.4813 31.4376 30.0313C31.4376 31.0854 31.8959 32.6667 32.8126 34.775C33.7293 36.8833 34.1876 38.625 34.1876 40C34.1876 40.9625 34.0959 41.7536 33.9126 42.3733C33.7293 42.9929 33.4543 43.5768 33.0876 44.125H28.9626ZM32.8126 67.5C28.1834 67.5 24.1162 65.9536 20.6109 62.8608C17.1055 59.7679 14.9853 55.9289 14.2501 51.3438C14.1584 50.5188 14.3876 49.7964 14.9376 49.1768C15.4876 48.5571 16.1751 48.2482 17.0001 48.25H45.9439L48.9689 19.7875C49.198 17.725 50.0808 15.9943 51.6171 14.5955C53.1534 13.1967 54.9978 12.4982 57.1501 12.5C59.4418 12.5 61.3897 13.3021 62.9939 14.9063C64.598 16.5104 65.4001 18.4583 65.4001 20.75C65.4001 21.3917 65.3433 22.2396 65.2296 23.2938L65.0564 24.875L59.6251 24.1875L59.7626 22.7768C59.8543 21.8381 59.9001 21.1625 59.9001 20.75C59.9001 19.9708 59.6361 19.3182 59.1081 18.792C58.5801 18.2658 57.9275 18.0018 57.1501 18C56.4168 18 55.798 18.2411 55.2939 18.7233C54.7897 19.2054 54.4918 19.7893 54.4001 20.475L51.2376 50.3813C50.7335 55.2396 48.7397 59.3078 45.2564 62.5858C41.773 65.8638 37.6251 67.5018 32.8126 67.5Z" fill="#FFFDFB"/>
</svg>
