<svg width="113" height="113" viewBox="0 0 113 113" fill="none" xmlns="http://www.w3.org/2000/svg">
<circle cx="56.5" cy="56.5" r="56.5" fill="#AF3939"/>
<mask id="path-2-inside-1_26_57" fill="white">
<path fill-rule="evenodd" clip-rule="evenodd" d="M83.25 44.0519C78.1458 43.8089 74.5781 48.025 75.6177 52.8954L75.6948 53.2496C75.8687 54.0326 76.5198 54.7482 77.5 54.7951C82.6042 55.0381 86.1719 50.821 85.1323 45.9516L85.0552 45.5964C84.8802 44.8144 84.2292 44.0988 83.25 44.0519ZM97.6729 48.3731C98.1198 48.5103 98.5295 48.7442 98.8718 49.0575C99.214 49.3708 99.48 49.7554 99.6501 50.1831C99.8203 50.6107 99.8901 51.0703 99.8546 51.5279C99.819 51.9856 99.679 52.4295 99.4448 52.827L99.1635 53.3037C97.174 56.6806 92.8781 58.3211 89.0802 57.1563L88.5448 56.992C88.098 56.8546 87.6884 56.6206 87.3462 56.3073C87.0041 55.994 86.7382 55.6093 86.5682 55.1817C86.3982 54.7541 86.3284 54.2945 86.364 53.8369C86.3997 53.3793 86.5397 52.9354 86.774 52.5381L87.0542 52.0613C89.0437 48.6844 93.3396 47.0439 97.1375 48.2087L97.6729 48.3731ZM83.0833 61.2733C86.6719 58.2945 92.1094 59.1398 94.6844 62.97L94.8719 63.2507C95.3146 63.9224 95.3406 64.8993 94.5635 65.5435C90.975 68.5223 85.5385 67.677 82.9625 63.8469L82.775 63.5661C82.3312 62.8944 82.3062 61.9175 83.0833 61.2733ZM73.6979 68.262C77.549 64.9494 83.3406 65.5884 86 69.732L86.1917 70.0321C86.65 70.761 86.599 71.742 85.8458 72.3902C81.9948 75.7038 76.2031 75.0648 73.5437 70.9202L73.3521 70.6201C72.8937 69.8912 72.9448 68.9102 73.6979 68.262ZM71.2594 50.2555C70.5781 49.5235 69.5698 49.4848 68.8167 49.8655L68.4667 50.0442C63.7021 52.5013 62.5969 58.2027 66.2458 62.1268C66.9271 62.8587 67.9365 62.8975 68.6885 62.5167L69.0396 62.337C73.8042 59.8809 74.9094 54.1785 71.2594 50.2555ZM59.8854 58.2619C64.6958 60.8875 65.5104 66.7328 61.7271 70.6099L61.4479 70.8947C60.851 71.496 59.8729 71.7757 58.9823 71.2887C54.1719 68.6621 53.3573 62.8179 57.1406 58.9407L57.4198 58.6569C58.0156 58.0546 58.9937 57.7749 59.8844 58.2619M78.9323 77.9895C75.9583 73.4866 69.9667 72.9129 66.2479 76.8921C65.5594 77.6291 65.6104 78.6265 66.0698 79.3339C66.1358 79.436 66.2083 79.5466 66.2875 79.6657C69.2625 84.1696 75.2531 84.7433 78.9729 80.7641C79.6604 80.0271 79.6094 79.0287 79.15 78.3223C79.084 78.2202 79.0115 78.1086 78.9323 77.9895ZM83.3219 59.0408C83.5532 58.8976 83.7535 58.7112 83.9113 58.4922C84.0691 58.2731 84.1813 58.0258 84.2416 57.7642C84.3018 57.5027 84.3089 57.2321 84.2625 56.9679C84.216 56.7037 84.1169 56.451 83.9708 56.2243C83.8247 55.9976 83.6345 55.8013 83.411 55.6467C83.1875 55.492 82.9351 55.382 82.6683 55.323C82.4014 55.2639 82.1253 55.257 81.8556 55.3025C81.586 55.348 81.3282 55.4451 81.0969 55.5883C75.2754 59.1986 70.0435 63.6496 65.5781 68.7908C61.4073 73.5815 58.5729 78.1743 56.7781 81.5777C56.0679 82.9183 55.4152 84.2874 54.8219 85.6815C54.599 86.2134 54.3909 86.7513 54.1979 87.2944C53.8167 88.3581 54.4167 89.5178 55.5094 89.875C56.6 90.2313 57.7677 89.6484 58.151 88.5857C58.3121 88.1345 58.4858 87.6864 58.6719 87.2413C59.05 86.345 59.6406 85.0424 60.4792 83.452C62.7625 79.1537 65.5365 75.1235 68.7479 71.4388C72.9416 66.6097 77.8553 62.4288 83.3229 59.0377"/>
</mask>
<path fill-rule="evenodd" clip-rule="evenodd" d="M83.25 44.0519C78.1458 43.8089 74.5781 48.025 75.6177 52.8954L75.6948 53.2496C75.8687 54.0326 76.5198 54.7482 77.5 54.7951C82.6042 55.0381 86.1719 50.821 85.1323 45.9516L85.0552 45.5964C84.8802 44.8144 84.2292 44.0988 83.25 44.0519ZM97.6729 48.3731C98.1198 48.5103 98.5295 48.7442 98.8718 49.0575C99.214 49.3708 99.48 49.7554 99.6501 50.1831C99.8203 50.6107 99.8901 51.0703 99.8546 51.5279C99.819 51.9856 99.679 52.4295 99.4448 52.827L99.1635 53.3037C97.174 56.6806 92.8781 58.3211 89.0802 57.1563L88.5448 56.992C88.098 56.8546 87.6884 56.6206 87.3462 56.3073C87.0041 55.994 86.7382 55.6093 86.5682 55.1817C86.3982 54.7541 86.3284 54.2945 86.364 53.8369C86.3997 53.3793 86.5397 52.9354 86.774 52.5381L87.0542 52.0613C89.0437 48.6844 93.3396 47.0439 97.1375 48.2087L97.6729 48.3731ZM83.0833 61.2733C86.6719 58.2945 92.1094 59.1398 94.6844 62.97L94.8719 63.2507C95.3146 63.9224 95.3406 64.8993 94.5635 65.5435C90.975 68.5223 85.5385 67.677 82.9625 63.8469L82.775 63.5661C82.3312 62.8944 82.3062 61.9175 83.0833 61.2733ZM73.6979 68.262C77.549 64.9494 83.3406 65.5884 86 69.732L86.1917 70.0321C86.65 70.761 86.599 71.742 85.8458 72.3902C81.9948 75.7038 76.2031 75.0648 73.5437 70.9202L73.3521 70.6201C72.8937 69.8912 72.9448 68.9102 73.6979 68.262ZM71.2594 50.2555C70.5781 49.5235 69.5698 49.4848 68.8167 49.8655L68.4667 50.0442C63.7021 52.5013 62.5969 58.2027 66.2458 62.1268C66.9271 62.8587 67.9365 62.8975 68.6885 62.5167L69.0396 62.337C73.8042 59.8809 74.9094 54.1785 71.2594 50.2555ZM59.8854 58.2619C64.6958 60.8875 65.5104 66.7328 61.7271 70.6099L61.4479 70.8947C60.851 71.496 59.8729 71.7757 58.9823 71.2887C54.1719 68.6621 53.3573 62.8179 57.1406 58.9407L57.4198 58.6569C58.0156 58.0546 58.9937 57.7749 59.8844 58.2619M78.9323 77.9895C75.9583 73.4866 69.9667 72.9129 66.2479 76.8921C65.5594 77.6291 65.6104 78.6265 66.0698 79.3339C66.1358 79.436 66.2083 79.5466 66.2875 79.6657C69.2625 84.1696 75.2531 84.7433 78.9729 80.7641C79.6604 80.0271 79.6094 79.0287 79.15 78.3223C79.084 78.2202 79.0115 78.1086 78.9323 77.9895ZM83.3219 59.0408C83.5532 58.8976 83.7535 58.7112 83.9113 58.4922C84.0691 58.2731 84.1813 58.0258 84.2416 57.7642C84.3018 57.5027 84.3089 57.2321 84.2625 56.9679C84.216 56.7037 84.1169 56.451 83.9708 56.2243C83.8247 55.9976 83.6345 55.8013 83.411 55.6467C83.1875 55.492 82.9351 55.382 82.6683 55.323C82.4014 55.2639 82.1253 55.257 81.8556 55.3025C81.586 55.348 81.3282 55.4451 81.0969 55.5883C75.2754 59.1986 70.0435 63.6496 65.5781 68.7908C61.4073 73.5815 58.5729 78.1743 56.7781 81.5777C56.0679 82.9183 55.4152 84.2874 54.8219 85.6815C54.599 86.2134 54.3909 86.7513 54.1979 87.2944C53.8167 88.3581 54.4167 89.5178 55.5094 89.875C56.6 90.2313 57.7677 89.6484 58.151 88.5857C58.3121 88.1345 58.4858 87.6864 58.6719 87.2413C59.05 86.345 59.6406 85.0424 60.4792 83.452C62.7625 79.1537 65.5365 75.1235 68.7479 71.4388C72.9416 66.6097 77.8553 62.4288 83.3229 59.0377" fill="white"/>
<path d="M83.25 44.0519L83.2739 43.5525L83.2738 43.5524L83.25 44.0519ZM75.6177 52.8954L75.1287 52.9997L75.1291 53.0017L75.6177 52.8954ZM75.6948 53.2496L75.2062 53.3559L75.2067 53.358L75.6948 53.2496ZM77.5 54.7951L77.4761 55.2946L77.4762 55.2946L77.5 54.7951ZM85.1323 45.9516L85.6213 45.8473L85.6209 45.8456L85.1323 45.9516ZM85.0552 45.5964L85.5438 45.4904L85.5431 45.4872L85.0552 45.5964ZM97.6729 48.3731L97.8197 47.8951L97.8196 47.8951L97.6729 48.3731ZM99.4448 52.827L99.8754 53.081L99.8756 53.0808L99.4448 52.827ZM99.1635 53.3037L98.7329 53.0496L98.7327 53.0499L99.1635 53.3037ZM89.0802 57.1563L88.9335 57.6343L88.9336 57.6343L89.0802 57.1563ZM88.5448 56.992L88.3979 57.4699L88.3981 57.4699L88.5448 56.992ZM86.774 52.5381L87.2047 52.7919L87.205 52.7914L86.774 52.5381ZM87.0542 52.0613L86.6234 51.8075L86.6231 51.808L87.0542 52.0613ZM97.1375 48.2087L97.2842 47.7307L97.2841 47.7307L97.1375 48.2087ZM83.0833 61.2733L83.4024 61.6583L83.4027 61.6581L83.0833 61.2733ZM94.6844 62.97L95.1002 62.6923L95.0993 62.691L94.6844 62.97ZM94.8719 63.2507L95.2894 62.9755L95.2877 62.973L94.8719 63.2507ZM94.5635 65.5435L94.2444 65.1585L94.2442 65.1588L94.5635 65.5435ZM82.9625 63.8469L82.5467 64.1246L82.5476 64.1259L82.9625 63.8469ZM82.775 63.5661L82.3578 63.8417L82.3592 63.8438L82.775 63.5661ZM73.6979 68.262L73.3719 67.8829L73.3717 67.883L73.6979 68.262ZM86 69.732L86.4214 69.4628L86.4208 69.4619L86 69.732ZM86.1917 70.0321L86.6149 69.7659L86.6131 69.763L86.1917 70.0321ZM85.8458 72.3902L86.1719 72.7692L86.172 72.7692L85.8458 72.3902ZM73.5437 70.9202L73.1223 71.1893L73.1229 71.1902L73.5437 70.9202ZM73.3521 70.6201L72.9288 70.8863L72.9307 70.8892L73.3521 70.6201ZM71.2594 50.2555L71.6254 49.9149L71.6254 49.9148L71.2594 50.2555ZM68.8167 49.8655L68.5911 49.4193L68.5894 49.4202L68.8167 49.8655ZM68.4667 50.0442L68.2394 49.5988L68.2375 49.5998L68.4667 50.0442ZM66.2458 62.1268L65.8797 62.4672L65.8798 62.4674L66.2458 62.1268ZM68.6885 62.5167L68.9144 62.9628L68.9163 62.9618L68.6885 62.5167ZM69.0396 62.337L69.2674 62.7821L69.2687 62.7815L69.0396 62.337ZM61.7271 70.6099L62.0842 70.9599L62.0849 70.9591L61.7271 70.6099ZM61.4479 70.8947L61.8028 71.247L61.805 71.2447L61.4479 70.8947ZM58.9823 71.2887L59.2221 70.85L59.2219 70.8499L58.9823 71.2887ZM57.1406 58.9407L56.7842 58.5901L56.7828 58.5915L57.1406 58.9407ZM57.4198 58.6569L57.0643 58.3053L57.0633 58.3063L57.4198 58.6569ZM78.9323 77.9895L78.5151 78.265L78.5159 78.2663L78.9323 77.9895ZM66.2479 76.8921L65.8826 76.5507L65.8825 76.5508L66.2479 76.8921ZM66.0698 79.3339L66.4897 79.0625L66.4891 79.0616L66.0698 79.3339ZM66.2875 79.6657L66.7047 79.3901L66.7039 79.3889L66.2875 79.6657ZM78.9729 80.7641L79.3382 81.1056L79.3385 81.1052L78.9729 80.7641ZM79.15 78.3223L78.7301 78.5937L78.7308 78.5949L79.15 78.3223ZM81.0969 55.5883L80.8337 55.1632L80.8334 55.1634L81.0969 55.5883ZM65.5781 68.7908L65.9552 69.1191L65.9556 69.1186L65.5781 68.7908ZM56.7781 81.5777L57.2199 81.8118L57.2204 81.8109L56.7781 81.5777ZM54.8219 85.6815L54.3618 85.4856L54.3607 85.4882L54.8219 85.6815ZM54.1979 87.2944L54.6686 87.4631L54.6691 87.4618L54.1979 87.2944ZM55.5094 89.875L55.354 90.3503L55.3541 90.3503L55.5094 89.875ZM58.151 88.5857L58.6214 88.7554L58.6219 88.7539L58.151 88.5857ZM58.6719 87.2413L58.2112 87.0469L58.2106 87.0484L58.6719 87.2413ZM60.4792 83.452L60.0376 83.2174L60.0369 83.2188L60.4792 83.452ZM68.7479 71.4388L69.1248 71.7673L69.1254 71.7666L68.7479 71.4388ZM83.25 44.0519L83.2738 43.5524C77.8473 43.2941 74.0196 47.8034 75.1287 52.9997L75.6177 52.8954L76.1067 52.791C75.1367 48.2465 78.4443 44.3237 83.2262 44.5513L83.25 44.0519ZM75.6177 52.8954L75.1291 53.0017L75.2062 53.3559L75.6948 53.2496L76.1834 53.1433L76.1063 52.789L75.6177 52.8954ZM75.6948 53.2496L75.2067 53.358C75.4213 54.324 76.2349 55.2351 77.4761 55.2946L77.5 54.7951L77.5239 54.2957C76.8047 54.2612 76.3162 53.7411 76.1829 53.1411L75.6948 53.2496ZM77.5 54.7951L77.4762 55.2946C82.9027 55.5529 86.7304 51.0425 85.6213 45.8473L85.1323 45.9516L84.6433 46.056C85.6133 50.5995 82.3056 54.5233 77.5238 54.2957L77.5 54.7951ZM85.1323 45.9516L85.6209 45.8456L85.5438 45.4904L85.0552 45.5964L84.5666 45.7024L84.6437 46.0577L85.1323 45.9516ZM85.0552 45.5964L85.5431 45.4872C85.3274 44.5231 84.5142 43.6119 83.2739 43.5525L83.25 44.0519L83.226 44.5513C83.9441 44.5857 84.433 45.1058 84.5673 45.7056L85.0552 45.5964ZM97.6729 48.3731L97.5262 48.851C97.9027 48.9667 98.2471 49.1635 98.5342 49.4263L98.8718 49.0575L99.2094 48.6887C98.812 48.3249 98.337 48.0539 97.8197 47.8951L97.6729 48.3731ZM98.8718 49.0575L98.5342 49.4263C98.8212 49.6891 99.0436 50.011 99.1856 50.3679L99.6501 50.1831L100.115 49.9982C99.9165 49.4999 99.6068 49.0525 99.2094 48.6887L98.8718 49.0575ZM99.6501 50.1831L99.1856 50.3679C99.3275 50.7247 99.3857 51.1079 99.3561 51.4892L99.8546 51.5279L100.353 51.5666C100.395 51.0327 100.313 50.4966 100.115 49.9982L99.6501 50.1831ZM99.8546 51.5279L99.3561 51.4892C99.3265 51.8705 99.2098 52.2409 99.014 52.5731L99.4448 52.827L99.8756 53.0808C100.148 52.6181 100.312 52.1006 100.353 51.5666L99.8546 51.5279ZM99.4448 52.827L99.0141 52.5729L98.7329 53.0496L99.1635 53.3037L99.5942 53.5578L99.8754 53.081L99.4448 52.827ZM99.1635 53.3037L98.7327 53.0499C96.8629 56.2235 92.808 57.7766 89.2268 56.6783L89.0802 57.1563L88.9336 57.6343C92.9482 58.8656 97.485 57.1377 99.5943 53.5575L99.1635 53.3037ZM89.0802 57.1563L89.2269 56.6783L88.6915 56.514L88.5448 56.992L88.3981 57.4699L88.9335 57.6343L89.0802 57.1563ZM88.5448 56.992L88.6917 56.514C88.3152 56.3983 87.9709 56.2014 87.6839 55.9386L87.3462 56.3073L87.0085 56.676C87.4058 57.0399 87.8807 57.3109 88.3979 57.4699L88.5448 56.992ZM87.3462 56.3073L87.6839 55.9386C87.397 55.6758 87.1747 55.3538 87.0328 54.9969L86.5682 55.1817L86.1036 55.3664C86.3017 55.8647 86.6112 56.3121 87.0085 56.676L87.3462 56.3073ZM86.5682 55.1817L87.0328 54.9969C86.891 54.6401 86.8329 54.257 86.8625 53.8757L86.364 53.8369L85.8655 53.7981C85.824 54.332 85.9055 54.868 86.1036 55.3664L86.5682 55.1817ZM86.364 53.8369L86.8625 53.8757C86.8922 53.4944 87.009 53.1241 87.2047 52.7919L86.774 52.5381L86.3432 52.2842C86.0705 52.7468 85.9071 53.2642 85.8655 53.7981L86.364 53.8369ZM86.774 52.5381L87.205 52.7914L87.4852 52.3147L87.0542 52.0613L86.6231 51.808L86.3429 52.2847L86.774 52.5381ZM87.0542 52.0613L87.485 52.3151C89.3548 49.1415 93.4097 47.5884 96.9909 48.6867L97.1375 48.2087L97.2841 47.7307C93.2695 46.4995 88.7327 48.2273 86.6234 51.8075L87.0542 52.0613ZM97.1375 48.2087L96.9908 48.6867L97.5262 48.8511L97.6729 48.3731L97.8196 47.8951L97.2842 47.7307L97.1375 48.2087ZM83.0833 61.2733L83.4027 61.6581C86.7596 58.8716 91.8568 59.6603 94.2694 63.2489L94.6844 62.97L95.0993 62.691C92.3619 58.6193 86.5842 57.7175 82.764 60.8886L83.0833 61.2733ZM94.6844 62.97L94.2686 63.2477L94.4561 63.5284L94.8719 63.2507L95.2877 62.973L95.1002 62.6923L94.6844 62.97ZM94.8719 63.2507L94.4544 63.5258C94.7883 64.0324 94.7841 64.7112 94.2444 65.1585L94.5635 65.5435L94.8826 65.9284C95.8972 65.0874 95.8409 63.8124 95.2894 62.9755L94.8719 63.2507ZM94.5635 65.5435L94.2442 65.1588C90.8873 67.9452 85.7911 67.1566 83.3774 63.5678L82.9625 63.8469L82.5476 64.1259C85.286 68.1974 91.0626 69.0993 94.8829 65.9282L94.5635 65.5435ZM82.9625 63.8469L83.3783 63.5692L83.1908 63.2884L82.775 63.5661L82.3592 63.8438L82.5467 64.1246L82.9625 63.8469ZM82.775 63.5661L83.1922 63.2905C82.858 62.7847 82.8624 62.1059 83.4024 61.6583L83.0833 61.2733L82.7642 60.8884C81.7501 61.7291 81.8045 63.0042 82.3578 63.8417L82.775 63.5661ZM73.6979 68.262L74.024 68.641C77.6672 65.5072 83.0996 66.1386 85.5792 70.002L86 69.732L86.4208 69.4619C83.5816 65.0382 77.4307 64.3915 73.3719 67.8829L73.6979 68.262ZM86 69.732L85.5786 70.0011L85.7703 70.3012L86.1917 70.0321L86.6131 69.763L86.4214 69.4628L86 69.732ZM86.1917 70.0321L85.7684 70.2982C86.1098 70.8412 86.0649 71.5419 85.5197 72.0113L85.8458 72.3902L86.172 72.7692C87.133 71.942 87.1902 70.6807 86.6149 69.7659L86.1917 70.0321ZM85.8458 72.3902L85.5197 72.0112C81.8765 75.146 76.4442 74.5146 73.9646 70.6502L73.5437 70.9202L73.1229 71.1902C75.9621 75.615 82.113 76.2617 86.1719 72.7692L85.8458 72.3902ZM73.5437 70.9202L73.9651 70.6511L73.7735 70.351L73.3521 70.6201L72.9307 70.8892L73.1223 71.1893L73.5437 70.9202ZM73.3521 70.6201L73.7753 70.3539C73.4339 69.8109 73.4788 69.1102 74.0241 68.6409L73.6979 68.262L73.3717 67.883C72.4107 68.7101 72.3536 69.9715 72.9288 70.8862L73.3521 70.6201ZM71.2594 50.2555L71.6254 49.9148C70.7634 48.9887 69.5021 48.9587 68.5911 49.4193L68.8167 49.8655L69.0423 50.3117C69.6375 50.0108 70.3928 50.0584 70.8934 50.5961L71.2594 50.2555ZM68.8167 49.8655L68.5894 49.4202L68.2394 49.5988L68.4667 50.0442L68.694 50.4895L69.044 50.3109L68.8167 49.8655ZM68.4667 50.0442L68.2375 49.5998C63.1906 52.2025 61.9962 58.291 65.8797 62.4672L66.2458 62.1268L66.612 61.7863C63.1975 58.1144 64.2136 52.8001 68.6958 50.4886L68.4667 50.0442ZM66.2458 62.1268L65.8798 62.4674C66.7418 63.3935 68.0042 63.4236 68.9144 62.9628L68.6885 62.5167L68.4627 62.0706C67.8687 62.3713 67.1124 62.3239 66.6118 61.7861L66.2458 62.1268ZM68.6885 62.5167L68.9163 62.9618L69.2674 62.7821L69.0396 62.337L68.8118 61.892L68.4607 62.0716L68.6885 62.5167ZM69.0396 62.337L69.2687 62.7815C74.3157 60.1797 75.5101 54.0901 71.6254 49.9149L71.2594 50.2555L70.8933 50.5961C74.3087 54.2669 73.2926 59.5821 68.8105 61.8926L69.0396 62.337ZM59.8854 58.2619L59.6459 58.7008C64.1617 61.1655 64.9244 66.6174 61.3692 70.2607L61.7271 70.6099L62.0849 70.9591C66.0965 66.8481 65.23 60.6094 60.125 57.823L59.8854 58.2619ZM61.7271 70.6099L61.37 70.2599L61.0908 70.5447L61.4479 70.8947L61.805 71.2447L62.0842 70.9599L61.7271 70.6099ZM61.4479 70.8947L61.0931 70.5424C60.6234 71.0155 59.8828 71.2112 59.2221 70.85L58.9823 71.2887L58.7424 71.7274C59.863 72.3401 61.0786 71.9764 61.8028 71.2469L61.4479 70.8947ZM58.9823 71.2887L59.2219 70.8499C54.706 68.3841 53.9434 62.9332 57.4985 59.2899L57.1406 58.9407L56.7828 58.5915C52.7712 62.7026 53.6378 68.9402 58.7427 71.7276L58.9823 71.2887ZM57.1406 58.9407L57.4971 59.2914L57.7762 59.0076L57.4198 58.6569L57.0633 58.3063L56.7842 58.5901L57.1406 58.9407ZM57.4198 58.6569L57.7752 59.0086C58.2435 58.5352 58.9838 58.3393 59.6445 58.7006L59.8844 58.2619L60.1242 57.8232C59.0037 57.2105 57.7877 57.5741 57.0643 58.3053L57.4198 58.6569ZM78.9323 77.9895L79.3495 77.7139C76.2005 72.946 69.826 72.3311 65.8826 76.5507L66.2479 76.8921L66.6132 77.2335C70.1073 73.4947 75.7162 74.0272 78.5151 78.265L78.9323 77.9895ZM66.2479 76.8921L65.8825 76.5508C65.0088 77.486 65.0901 78.7433 65.6504 79.6062L66.0698 79.3339L66.4891 79.0616C66.1307 78.5096 66.1099 77.7722 66.6133 77.2334L66.2479 76.8921ZM66.0698 79.3339L65.6498 79.6053C65.7172 79.7095 65.7909 79.8219 65.8711 79.9425L66.2875 79.6657L66.7039 79.3889C66.6257 79.2713 66.5543 79.1625 66.4897 79.0625L66.0698 79.3339ZM66.2875 79.6657L65.8703 79.9413C69.0203 84.7102 75.3937 85.3251 79.3382 81.1056L78.9729 80.7641L78.6077 80.4227C75.1125 84.1615 69.5047 83.629 66.7047 79.3901L66.2875 79.6657ZM78.9729 80.7641L79.3385 81.1052C80.2109 80.17 80.1298 78.9118 79.5692 78.0497L79.15 78.3223L78.7308 78.5949C79.089 79.1456 79.11 79.8842 78.6073 80.4231L78.9729 80.7641ZM79.15 78.3223L79.5699 78.0509C79.5034 77.948 79.4296 77.8344 79.3487 77.7127L78.9323 77.9895L78.5159 78.2663C78.5933 78.3828 78.6646 78.4924 78.7301 78.5937L79.15 78.3223ZM83.3219 59.0408L83.585 59.4659C83.8717 59.2885 84.1205 59.0571 84.3169 58.7844L83.9113 58.4922L83.5056 58.1999C83.3864 58.3653 83.2347 58.5067 83.0587 58.6156L83.3219 59.0408ZM83.9113 58.4922L84.3169 58.7844C84.5134 58.5117 84.6535 58.2033 84.7288 57.8765L84.2416 57.7642L83.7543 57.652C83.7091 57.8483 83.6247 58.0345 83.5056 58.1999L83.9113 58.4922ZM84.2416 57.7642L84.7288 57.8765C84.8041 57.5497 84.813 57.2115 84.7549 56.8813L84.2625 56.9679L83.77 57.0545C83.8049 57.2527 83.7996 57.4557 83.7543 57.652L84.2416 57.7642ZM84.2625 56.9679L84.7549 56.8813C84.6969 56.5511 84.5731 56.2358 84.3911 55.9534L83.9708 56.2243L83.5505 56.4952C83.6607 56.6661 83.7352 56.8562 83.77 57.0545L84.2625 56.9679ZM83.9708 56.2243L84.3911 55.9534C84.2091 55.6711 83.9726 55.4273 83.6955 55.2355L83.411 55.6467L83.1265 56.0579C83.2964 56.1754 83.4403 56.3241 83.5505 56.4952L83.9708 56.2243ZM83.411 55.6467L83.6955 55.2355C83.4184 55.0438 83.106 54.9078 82.7763 54.8348L82.6683 55.323L82.5602 55.8112C82.7642 55.8563 82.9566 55.9403 83.1265 56.0579L83.411 55.6467ZM82.6683 55.323L82.7763 54.8348C82.4465 54.7618 82.1055 54.7532 81.7724 54.8095L81.8556 55.3025L81.9389 55.7955C82.1451 55.7607 82.3562 55.766 82.5602 55.8112L82.6683 55.323ZM81.8556 55.3025L81.7724 54.8095C81.4393 54.8657 81.1203 54.9858 80.8337 55.1632L81.0969 55.5883L81.36 56.0135C81.536 55.9045 81.7327 55.8303 81.9389 55.7955L81.8556 55.3025ZM81.0969 55.5883L80.8334 55.1634C74.9695 58.7999 69.6991 63.2836 65.2006 68.4629L65.5781 68.7908L65.9556 69.1186C70.3879 64.0155 75.5813 59.5972 81.3604 56.0132L81.0969 55.5883ZM65.5781 68.7908L65.201 68.4624C61.0003 73.2875 58.1451 77.9137 56.3359 81.3445L56.7781 81.5777L57.2204 81.8109C59.0008 78.4348 61.8143 73.8755 65.9552 69.1191L65.5781 68.7908ZM56.7781 81.5777L56.3363 81.3436C55.6194 82.6967 54.9607 84.0785 54.3618 85.4856L54.8219 85.6815L55.2819 85.8773C55.8697 84.4962 56.5163 83.1399 57.2199 81.8118L56.7781 81.5777ZM54.8219 85.6815L54.3607 85.4882C54.1343 86.0287 53.9229 86.5752 53.7268 87.127L54.1979 87.2944L54.6691 87.4618C54.859 86.9274 55.0637 86.3982 55.283 85.8747L54.8219 85.6815ZM54.1979 87.2944L53.7272 87.1257C53.2455 88.4698 54.0093 89.9106 55.354 90.3503L55.5094 89.875L55.6648 89.3998C54.8241 89.1249 54.3879 88.2464 54.6686 87.4631L54.1979 87.2944ZM55.5094 89.875L55.3541 90.3503C56.7037 90.7912 58.1471 90.0702 58.6214 88.7554L58.151 88.5857L57.6807 88.4161C57.3883 89.2267 56.4963 89.6714 55.6646 89.3998L55.5094 89.875ZM58.151 88.5857L58.6219 88.7539C58.78 88.3111 58.9504 87.8712 59.1332 87.4342L58.6719 87.2413L58.2106 87.0484C58.0211 87.5016 57.8443 87.958 57.6802 88.4176L58.151 88.5857ZM58.6719 87.2413L59.1326 87.4356C59.5057 86.5512 60.0902 85.2617 60.9215 83.6852L60.4792 83.452L60.0369 83.2188C59.191 84.8231 58.5943 86.1388 58.2112 87.0469L58.6719 87.2413ZM60.4792 83.452L60.9207 83.6865C63.1861 79.4221 65.9384 75.4234 69.1248 71.7673L68.7479 71.4388L68.371 71.1103C65.1346 74.8236 62.3389 78.8853 60.0376 83.2174L60.4792 83.452ZM68.7479 71.4388L69.1254 71.7666C73.286 66.9756 78.1612 62.8274 83.5864 59.4626L83.3229 59.0377L83.0594 58.6128C77.5494 62.0302 72.5971 66.2437 68.3704 71.111L68.7479 71.4388Z" fill="#FFF7EC" mask="url(#path-2-inside-1_26_57)"/>
<path d="M68.0811 56.9635L56.4555 30.5713C55.9965 29.4737 55.2258 28.5347 54.2387 27.8705C53.2516 27.2062 52.0915 26.8459 50.9018 26.8341C49.7121 26.8222 48.5451 27.1594 47.545 27.8039C46.5449 28.4483 45.7556 29.3718 45.2749 30.4601L23.7369 77.0367C21.7752 81.2717 24.7641 86.1667 29.3031 86.1667H83.6969" stroke="#FFF7EC" stroke-width="6" stroke-linecap="round" stroke-linejoin="round"/>
</svg>
