<svg width="80" height="80" viewBox="0 0 80 80" fill="none" xmlns="http://www.w3.org/2000/svg">
<circle cx="40" cy="40" r="40" fill="#AF3939"/>
<path d="M51 15.25C53.1043 15.2499 55.1292 16.0539 56.6602 17.4975C58.1913 18.9412 59.1128 20.9153 59.2363 23.016L59.25 23.5V51H61.3125C63.0918 51 64.5575 52.353 64.7335 54.0855L64.75 54.4375V59.25C64.7501 61.3543 63.9461 63.3792 62.5025 64.9102C61.0588 66.4413 59.0847 67.3628 56.984 67.4863L56.5 67.5H29C26.8957 67.5001 24.8708 66.6961 23.3398 65.2525C21.8087 63.8088 20.8872 61.8347 20.7638 59.734L20.75 59.25V31.75H15.9375C15.0865 31.7504 14.2656 31.4351 13.6336 30.8651C13.0017 30.2952 12.6036 29.511 12.5165 28.6645L12.5 28.3125V23.5C12.4999 21.3957 13.3039 19.3708 14.7475 17.8398C16.1912 16.3087 18.1653 15.3872 20.266 15.2638L20.75 15.25H51ZM51 20.75H26.25V59.25C26.25 59.9793 26.5397 60.6788 27.0555 61.1945C27.5712 61.7103 28.2707 62 29 62C29.7293 62 30.4288 61.7103 30.9445 61.1945C31.4603 60.6788 31.75 59.9793 31.75 59.25V54.4375C31.75 52.54 33.29 51 35.1875 51H53.75V23.5C53.75 22.7707 53.4603 22.0712 52.9445 21.5555C52.4288 21.0397 51.7293 20.75 51 20.75ZM59.25 56.5H37.25V59.25C37.25 60.2125 37.085 61.1393 36.7825 62H56.5C57.2293 62 57.9288 61.7103 58.4445 61.1945C58.9603 60.6788 59.25 59.9793 59.25 59.25V56.5ZM40 40C40.7293 40 41.4288 40.2897 41.9445 40.8055C42.4603 41.3212 42.75 42.0207 42.75 42.75C42.75 43.4793 42.4603 44.1788 41.9445 44.6945C41.4288 45.2103 40.7293 45.5 40 45.5H34.5C33.7707 45.5 33.0712 45.2103 32.5555 44.6945C32.0397 44.1788 31.75 43.4793 31.75 42.75C31.75 42.0207 32.0397 41.3212 32.5555 40.8055C33.0712 40.2897 33.7707 40 34.5 40H40ZM45.5 29C46.2293 29 46.9288 29.2897 47.4445 29.8055C47.9603 30.3212 48.25 31.0207 48.25 31.75C48.25 32.4793 47.9603 33.1788 47.4445 33.6945C46.9288 34.2103 46.2293 34.5 45.5 34.5H34.5C33.7707 34.5 33.0712 34.2103 32.5555 33.6945C32.0397 33.1788 31.75 32.4793 31.75 31.75C31.75 31.0207 32.0397 30.3212 32.5555 29.8055C33.0712 29.2897 33.7707 29 34.5 29H45.5ZM20.75 20.75C20.0764 20.7501 19.4263 20.9974 18.923 21.445C18.4196 21.8926 18.0981 22.5093 18.0192 23.1782L18 23.5V26.25H20.75V20.75Z" fill="#FFFDFB"/>
</svg>
