<svg width="94" height="94" viewBox="0 0 94 94" fill="none" xmlns="http://www.w3.org/2000/svg">
<circle cx="47" cy="47" r="43.5" fill="#FFFDFB" stroke="#AF3939" stroke-width="7"/>
<path d="M58 22.25C60.1043 22.2499 62.1292 23.0539 63.6602 24.4975C65.1913 25.9412 66.1128 27.9153 66.2363 30.016L66.25 30.5V58H68.3125C70.0918 58 71.5575 59.353 71.7335 61.0855L71.75 61.4375V66.25C71.7501 68.3543 70.9461 70.3792 69.5025 71.9102C68.0588 73.4413 66.0847 74.3628 63.984 74.4863L63.5 74.5H36C33.8957 74.5001 31.8708 73.6961 30.3398 72.2525C28.8087 70.8088 27.8872 68.8347 27.7638 66.734L27.75 66.25V38.75H22.9375C22.0865 38.7504 21.2656 38.4351 20.6336 37.8651C20.0017 37.2952 19.6036 36.511 19.5165 35.6645L19.5 35.3125V30.5C19.4999 28.3957 20.3039 26.3708 21.7475 24.8398C23.1912 23.3087 25.1653 22.3872 27.266 22.2638L27.75 22.25H58ZM58 27.75H33.25V66.25C33.25 66.9793 33.5397 67.6788 34.0555 68.1945C34.5712 68.7103 35.2707 69 36 69C36.7293 69 37.4288 68.7103 37.9445 68.1945C38.4603 67.6788 38.75 66.9793 38.75 66.25V61.4375C38.75 59.54 40.29 58 42.1875 58H60.75V30.5C60.75 29.7707 60.4603 29.0712 59.9445 28.5555C59.4288 28.0397 58.7293 27.75 58 27.75ZM66.25 63.5H44.25V66.25C44.25 67.2125 44.085 68.1393 43.7825 69H63.5C64.2293 69 64.9288 68.7103 65.4445 68.1945C65.9603 67.6788 66.25 66.9793 66.25 66.25V63.5ZM47 47C47.7293 47 48.4288 47.2897 48.9445 47.8055C49.4603 48.3212 49.75 49.0207 49.75 49.75C49.75 50.4793 49.4603 51.1788 48.9445 51.6945C48.4288 52.2103 47.7293 52.5 47 52.5H41.5C40.7707 52.5 40.0712 52.2103 39.5555 51.6945C39.0397 51.1788 38.75 50.4793 38.75 49.75C38.75 49.0207 39.0397 48.3212 39.5555 47.8055C40.0712 47.2897 40.7707 47 41.5 47H47ZM52.5 36C53.2293 36 53.9288 36.2897 54.4445 36.8055C54.9603 37.3212 55.25 38.0207 55.25 38.75C55.25 39.4793 54.9603 40.1788 54.4445 40.6945C53.9288 41.2103 53.2293 41.5 52.5 41.5H41.5C40.7707 41.5 40.0712 41.2103 39.5555 40.6945C39.0397 40.1788 38.75 39.4793 38.75 38.75C38.75 38.0207 39.0397 37.3212 39.5555 36.8055C40.0712 36.2897 40.7707 36 41.5 36H52.5ZM27.75 27.75C27.0764 27.7501 26.4263 27.9974 25.923 28.445C25.4196 28.8926 25.0981 29.5093 25.0192 30.1782L25 30.5V33.25H27.75V27.75Z" fill="#AF3939"/>
</svg>
