<svg width="808" height="861" viewBox="0 0 808 861" fill="none" xmlns="http://www.w3.org/2000/svg">
<path d="M600.483 27C610.491 9.66675 635.509 9.6667 645.517 27L1150.41 901.5C1160.42 918.833 1147.91 940.5 1127.89 940.5H118.107C98.0926 940.5 85.5834 918.833 95.5908 901.5L600.483 27Z" fill="url(#paint0_linear_1_391)" stroke="#57321F" stroke-width="12"/>
<mask id="mask0_1_391" style="mask-type:alpha" maskUnits="userSpaceOnUse" x="98" y="21" width="1050" height="915">
<path d="M610.01 33.5C615.783 23.5001 630.217 23.5001 635.99 33.5L1140.88 908C1146.66 918 1139.44 930.5 1127.89 930.5H118.107C106.741 930.5 99.5699 918.388 104.855 908.471L105.117 908L610.01 33.5Z" fill="#D9D9D9" stroke="#3D3D3D" stroke-width="10"/>
</mask>
<g mask="url(#mask0_1_391)">
<path d="M887 -91V339.546C886.988 339.612 886.975 339.684 886.96 339.765C886.881 340.199 886.761 340.847 886.603 341.692C886.287 343.384 885.816 345.869 885.2 349.034C883.966 355.365 882.149 364.416 879.818 375.279C875.154 397.015 868.442 425.964 860.24 454.886C852.022 483.862 842.373 512.581 831.879 533.97C826.623 544.684 821.28 553.295 815.979 559.155C810.598 565.103 805.926 567.5 802 567.5C797.714 567.5 793.702 565.584 789.609 561.402C785.438 557.141 781.491 550.82 777.552 542.777C769.58 526.496 762.628 505.411 753.637 483.537C744.832 462.115 734.225 440.429 719.307 424.959C704.146 409.238 684.493 399.922 658.314 403.547C634.976 406.778 619.157 402.19 607.6 394.019C595.865 385.722 587.938 373.332 581.212 359.833C577.846 353.077 574.883 346.266 571.835 339.576C568.828 332.974 565.747 326.513 562.275 320.871C555.323 309.575 546.109 300.5 531.5 300.5C517.803 300.5 505.615 307.153 494.658 315.898C483.726 324.623 473.297 336.043 463.363 346.347C453.227 356.859 443.61 366.211 433.805 371.832C424.235 377.318 414.935 379.009 404.905 374.877C403.556 374.321 401.661 372.644 399.59 368.646C397.574 364.752 395.726 359.3 394.098 352.329C390.849 338.412 388.677 319.335 387.385 296.687C384.804 251.447 385.775 192.817 388.234 134.644C390.691 76.5041 394.627 18.9579 397.95 -24.0625C399.611 -45.5699 401.118 -63.4413 402.21 -75.9336C402.756 -82.1795 403.198 -87.0808 403.503 -90.4189C403.522 -90.6182 403.54 -90.8119 403.557 -91H887Z" fill="url(#paint1_linear_1_391)" stroke="#57321F" stroke-width="10"/>
</g>
<defs>
<linearGradient id="paint0_linear_1_391" x1="623" y1="36" x2="696.5" y2="897" gradientUnits="userSpaceOnUse">
<stop stop-color="#8F8983"/>
<stop offset="1" stop-color="#50463C"/>
</linearGradient>
<linearGradient id="paint1_linear_1_391" x1="593.147" y1="26.9081" x2="931.989" y2="456.924" gradientUnits="userSpaceOnUse">
<stop stop-color="#FFF7EC"/>
<stop offset="1" stop-color="#DCD3C8"/>
</linearGradient>
</defs>
</svg>
