<svg width="1246" height="604" viewBox="0 0 1246 604" fill="none" xmlns="http://www.w3.org/2000/svg">
<path d="M600.483 28C610.491 10.6667 635.509 10.6667 645.517 28L1150.41 902.5C1160.42 919.833 1147.91 941.5 1127.89 941.5H118.107C98.0926 941.5 85.5834 919.833 95.5908 902.5L600.483 28Z" fill="url(#paint0_linear_1_392)" stroke="#57321F" stroke-width="12"/>
<mask id="mask0_1_392" style="mask-type:alpha" maskUnits="userSpaceOnUse" x="98" y="20" width="1050" height="915">
<path d="M610.442 32.75C616.024 23.0833 629.977 23.0834 635.558 32.75L1140.45 907.25C1146.03 916.917 1139.05 929 1127.89 929H118.107C107.12 929 100.188 917.292 105.298 907.705L105.55 907.25L610.442 32.75Z" fill="#D9D9D9" stroke="#3D3D3D" stroke-width="11"/>
</mask>
<g mask="url(#mask0_1_392)">
<path d="M424 -112V316.677C424.324 316.946 424.691 317.251 425.101 317.588C426.96 319.117 429.68 321.311 433.098 323.947C439.939 329.224 449.548 336.255 460.627 343.276C483.068 357.5 510.495 371 533 371C543.73 371 554.943 366.693 566.801 359.667C578.647 352.648 590.613 343.244 602.908 333.57C615.08 323.994 627.581 314.148 640.102 306.729C652.61 299.318 665.664 294 679 294C704.923 294 724.669 308.346 742.915 321.438C761.603 334.846 778.791 347 801 347C824.128 347 851.181 339.022 872.775 330.825C883.504 326.753 892.752 322.678 899.314 319.623C902.594 318.096 905.199 316.826 906.977 315.941C906.984 315.937 906.992 315.933 907 315.929V-112H424Z" fill="url(#paint1_linear_1_392)" stroke="#57321F" stroke-width="10"/>
</g>
<defs>
<linearGradient id="paint0_linear_1_392" x1="623" y1="37" x2="696.5" y2="898" gradientUnits="userSpaceOnUse">
<stop stop-color="#8F8983"/>
<stop offset="1" stop-color="#50463C"/>
</linearGradient>
<linearGradient id="paint1_linear_1_392" x1="707.246" y1="-26.3588" x2="480.028" y2="350.773" gradientUnits="userSpaceOnUse">
<stop stop-color="#FFF7EC"/>
<stop offset="1" stop-color="#DCD3C8"/>
</linearGradient>
</defs>
</svg>
