<svg width="1030" height="837" viewBox="0 0 1030 837" fill="none" xmlns="http://www.w3.org/2000/svg">
<g filter="url(#filter0_d_1_393)">
<path d="M384.483 27C394.491 9.66675 419.509 9.6667 429.517 27L934.409 901.5C944.417 918.833 931.907 940.5 911.893 940.5H-97.8926C-117.907 940.5 -130.417 918.833 -120.409 901.5L384.483 27Z" fill="url(#paint0_linear_1_393)" stroke="#57321F" stroke-width="12"/>
<mask id="mask0_1_393" style="mask-type:alpha" maskUnits="userSpaceOnUse" x="-118" y="20" width="1050" height="915">
<path d="M394.01 32.5C399.783 22.5001 414.217 22.5001 419.99 32.5L924.883 907C930.656 917 923.44 929.5 911.893 929.5H-97.8926C-109.259 929.5 -116.43 917.388 -111.145 907.471L-110.883 907L394.01 32.5Z" fill="#D9D9D9" stroke="#3D3D3D" stroke-width="10"/>
</mask>
<g mask="url(#mask0_1_393)">
<path d="M671.337 -82V251.95L673.547 253.437L676.337 249.287L673.548 253.437L673.562 253.446C673.574 253.454 673.591 253.465 673.613 253.48C673.659 253.511 673.728 253.558 673.819 253.62C674.002 253.744 674.276 253.929 674.633 254.172C675.346 254.658 676.393 255.374 677.719 256.29C680.372 258.123 684.143 260.757 688.601 263.951C697.526 270.347 709.166 278.962 720.107 287.889C731.124 296.877 741.148 305.954 747.049 313.29C750.078 317.056 751.545 319.796 751.917 321.47C751.991 321.802 752.002 322.011 751.999 322.125C751.936 322.171 751.833 322.24 751.67 322.32C747.401 324.43 744.693 328.221 742.744 332.231C740.8 336.232 739.309 341.102 737.858 346.116C734.883 356.397 731.808 368.182 725.267 379.63C718.812 390.928 708.949 401.908 692.33 410.128C675.622 418.393 651.812 424 617.301 424C582.723 424 561.105 419.045 546.113 411.947C531.192 404.883 522.399 395.51 513.602 385.577C504.827 375.67 495.849 364.926 480.923 356.913C465.956 348.879 445.459 343.785 413.674 343.785C382.45 343.785 366.6 340.607 358.628 336.437C354.835 334.452 353.06 332.361 352.116 330.436C351.118 328.4 350.786 326.027 350.757 322.995C350.742 321.461 350.802 319.947 350.847 318.211C350.89 316.541 350.918 314.714 350.8 312.875C350.562 309.159 349.714 305.034 346.923 301.242C341.436 293.788 329.983 289.614 308.93 288.262C265.726 285.487 220.952 299.735 187.287 314.41C170.393 321.775 156.162 329.307 146.147 335.002C143.514 336.499 141.172 337.871 139.146 339.08L187.489 -82H671.337Z" fill="url(#paint1_linear_1_393)" stroke="#57321F" stroke-width="10"/>
</g>
</g>
<defs>
<filter id="filter0_d_1_393" x="-133.941" y="8.00003" width="1081.88" height="946.5" filterUnits="userSpaceOnUse" color-interpolation-filters="sRGB">
<feFlood flood-opacity="0" result="BackgroundImageFix"/>
<feColorMatrix in="SourceAlpha" type="matrix" values="0 0 0 0 0 0 0 0 0 0 0 0 0 0 0 0 0 0 127 0" result="hardAlpha"/>
<feOffset dy="4"/>
<feGaussianBlur stdDeviation="2"/>
<feComposite in2="hardAlpha" operator="out"/>
<feColorMatrix type="matrix" values="0 0 0 0 0 0 0 0 0 0 0 0 0 0 0 0 0 0 0.25 0"/>
<feBlend mode="normal" in2="BackgroundImageFix" result="effect1_dropShadow_1_393"/>
<feBlend mode="normal" in="SourceGraphic" in2="effect1_dropShadow_1_393" result="shape"/>
</filter>
<linearGradient id="paint0_linear_1_393" x1="407" y1="36" x2="480.5" y2="897" gradientUnits="userSpaceOnUse">
<stop stop-color="#8F8983"/>
<stop offset="1" stop-color="#50463C"/>
</linearGradient>
<linearGradient id="paint1_linear_1_393" x1="392.161" y1="7.86994" x2="606.903" y2="438.893" gradientUnits="userSpaceOnUse">
<stop stop-color="#FFF7EC"/>
<stop offset="1" stop-color="#DCD3C8"/>
</linearGradient>
</defs>
</svg>
