<svg width="77" height="77" viewBox="0 0 77 77" fill="none" xmlns="http://www.w3.org/2000/svg">
<path d="M16.4903 27.7009C14.66 27.6254 13.4414 27.2351 12.558 26.67C10.2752 25.2099 9.19419 25.7003 10.2057 28.2142C24.1123 62.778 42.3774 64.9523 74.6991 52.4341C65.0793 28.0508 23.0881 27.9731 16.4903 27.7009Z" fill="url(#paint0_linear_63_207)"/>
<path d="M13.277 24.5912C11.6653 25.462 10.4186 25.7496 9.37035 25.7156C6.66201 25.6278 5.98364 26.6019 8.13815 28.2453C37.7607 50.8409 54.5699 43.3716 75.9484 16.0887C55.2148 0.0509091 19.0865 21.452 13.277 24.5912Z" fill="url(#paint1_linear_63_207)"/>
<defs>
<linearGradient id="paint0_linear_63_207" x1="12.9263" y1="27.9593" x2="71.6847" y2="55.8466" gradientUnits="userSpaceOnUse">
<stop stop-color="#F8E1D6"/>
<stop offset="1" stop-color="#E8B7AC"/>
</linearGradient>
<linearGradient id="paint1_linear_63_207" x1="10.3461" y1="26.6354" x2="75.1023" y2="20.5626" gradientUnits="userSpaceOnUse">
<stop stop-color="#F8E1D6"/>
<stop offset="1" stop-color="#E8B7AC"/>
</linearGradient>
</defs>
</svg>
