<svg width="164" height="164" viewBox="0 0 164 164" fill="none" xmlns="http://www.w3.org/2000/svg">
<rect width="164" height="164" rx="10" fill="#AF3939"/>
<path d="M127 57V117C127 119.75 126.022 122.105 124.065 124.065C122.108 126.025 119.753 127.003 117 127H47C44.25 127 41.8967 126.022 39.94 124.065C37.9833 122.108 37.0033 119.753 37 117V47C37 44.25 37.98 41.8967 39.94 39.94C41.9 37.9833 44.2533 37.0033 47 37H107L127 57ZM82 112C86.1667 112 89.7083 110.542 92.625 107.625C95.5417 104.708 97 101.167 97 97C97 92.8333 95.5417 89.2917 92.625 86.375C89.7083 83.4583 86.1667 82 82 82C77.8333 82 74.2917 83.4583 71.375 86.375C68.4583 89.2917 67 92.8333 67 97C67 101.167 68.4583 104.708 71.375 107.625C74.2917 110.542 77.8333 112 82 112ZM52 72H97V52H52V72Z" fill="#FFFDFB" fill-opacity="0.7"/>
</svg>
