<svg width="94" height="94" viewBox="0 0 94 94" fill="none" xmlns="http://www.w3.org/2000/svg">
<circle cx="47" cy="47" r="43.5" fill="#FFFDFB" stroke="#AF3939" stroke-width="7"/>
<path d="M70.25 36.8125C70.25 32.2288 59.61 28.5 46.5 28.5C33.39 28.5 22.75 32.2288 22.75 36.8125C22.75 41.1112 32.1312 44.6737 44.125 45.0775V54.625H40.2063C38.2588 54.625 36.525 55.8125 35.7887 57.6175L32.25 66.5H37L39.85 59.375H53.15L56 66.5H60.75L57.1875 57.6175C56.475 55.8125 54.7175 54.625 52.7937 54.625H48.875V45.0775C60.8688 44.6737 70.25 41.1112 70.25 36.8125ZM46.5 33.25C56.1188 33.25 62.5075 35.2925 64.835 36.8125C62.5075 38.3325 56.1188 40.375 46.5 40.375C36.8812 40.375 30.4925 38.3325 28.165 36.8125C30.4925 35.2925 36.8812 33.25 46.5 33.25Z" fill="#AF3939"/>
</svg>
