<svg width="80" height="80" viewBox="0 0 80 80" fill="none" xmlns="http://www.w3.org/2000/svg">
<circle cx="40" cy="40" r="40" fill="#AF3939"/>
<path d="M63.25 29.8125C63.25 25.2288 52.61 21.5 39.5 21.5C26.39 21.5 15.75 25.2288 15.75 29.8125C15.75 34.1112 25.1312 37.6737 37.125 38.0775V47.625H33.2063C31.2588 47.625 29.525 48.8125 28.7887 50.6175L25.25 59.5H30L32.85 52.375H46.15L49 59.5H53.75L50.1875 50.6175C49.475 48.8125 47.7175 47.625 45.7937 47.625H41.875V38.0775C53.8688 37.6737 63.25 34.1112 63.25 29.8125ZM39.5 26.25C49.1188 26.25 55.5075 28.2925 57.835 29.8125C55.5075 31.3325 49.1188 33.375 39.5 33.375C29.8812 33.375 23.4925 31.3325 21.165 29.8125C23.4925 28.2925 29.8812 26.25 39.5 26.25Z" fill="#FFFDFB"/>
</svg>
