<svg width="35" height="35" viewBox="0 0 35 35" fill="none" xmlns="http://www.w3.org/2000/svg">
<circle cx="17.5" cy="17.5" r="17.5" transform="rotate(-90 17.5 17.5)" fill="#AF3939"/>
<path d="M12.5 27.5C11.95 27.5 11.4793 27.3043 11.088 26.913C10.6967 26.5217 10.5007 26.0507 10.5 25.5L10.5 12.5H9.5V10.5H14.5V9.5L20.5 9.5V10.5L25.5 10.5V12.5L24.5 12.5V25.5C24.5 26.05 24.3043 26.521 23.913 26.913C23.5217 27.305 23.0507 27.5007 22.5 27.5L12.5 27.5ZM14.5 23.5H16.5L16.5 14.5H14.5L14.5 23.5ZM18.5 23.5H20.5V14.5H18.5V23.5Z" fill="#FFFDFB"/>
</svg>
